<svg width="80" height="80" viewBox="0 0 80 80" fill="none" xmlns="http://www.w3.org/2000/svg">
<path d="M45.9378 10.4178C45.4045 11.0222 29.0845 67.52 29.2267 68.2311C29.2978 68.5867 30.1867 69.0844 31.3956 69.4756C33.1734 70.0444 33.5289 70.08 33.9556 69.6533C34.4178 69.1911 50.8445 12.9778 50.8445 11.8756C50.8445 10.8444 46.6134 9.6 45.9378 10.4178Z" fill="#E1CBB7" fill-opacity="0.7"/>
<path d="M10.7378 28.9066C4.83556 34.8089 0 39.8222 0 40C0 40.4266 21.3689 61.8666 21.7956 61.8666C22.4356 61.8666 25.2444 58.88 25.2444 58.1689C25.2444 57.6711 22.4711 54.6489 16.5333 48.7111L7.82222 40L16.5333 31.2889C22.4356 25.3866 25.2444 22.3289 25.2444 21.8311C25.2444 21.12 22.4356 18.1333 21.7956 18.1333C21.6178 18.1333 16.6756 22.9689 10.7378 28.9066Z" fill="#E1CBB7" fill-opacity="0.7"/>
<path d="M56.3556 19.5911C55.4311 20.4444 54.7556 21.3689 54.7556 21.8311C54.7556 22.3289 57.5644 25.3866 63.4667 31.2889L72.1778 40L63.4667 48.7111C57.5289 54.6489 54.7556 57.6711 54.7556 58.1689C54.7556 58.88 57.5644 61.8666 58.2044 61.8666C58.6311 61.8666 80 40.4266 80 40C80 39.5733 58.6311 18.1333 58.2044 18.1333C58.0622 18.1333 57.2089 18.8089 56.3556 19.5911Z" fill="#E1CBB7" fill-opacity="0.7"/>
</svg>
