<svg width="40" height="40" viewBox="0 0 40 40" fill="none" xmlns="http://www.w3.org/2000/svg">
<path d="M7.01748 11.6667H7.06081C9.38581 11.6667 10.8333 10.0001 10.8333 7.91675C10.79 5.78758 9.38581 4.16675 7.10498 4.16675C4.82415 4.16675 3.33331 5.78758 3.33331 7.91675C3.33331 10.0001 4.77998 11.6667 7.01748 11.6667ZM3.33331 14.1667H10.8333V35.8334H3.33331V14.1667ZM36.6666 22.0834C36.6666 17.7109 33.1225 14.1667 28.75 14.1667C26.2058 14.1667 23.9483 15.3717 22.5 17.2367V14.1667H15V35.8334H22.5V23.3334C22.5 21.4926 23.9925 20.0001 25.8333 20.0001C27.6741 20.0001 29.1666 21.4926 29.1666 23.3334V35.8334H36.6666C36.6666 35.8334 36.6666 23.2959 36.6666 22.0834Z" fill="#F2CDA0" fill-opacity="0.75"/>
</svg>
